<svg xmlns="http://www.w3.org/2000/svg" viewBox="0 0 556.54 37.12">
	<defs>
		<style>
			.cls-1 {
				fill: #010101;
			}
			.cls-2 {
				fill: none;
				stroke: #010101;
				stroke-miterlimit: 10;
				stroke-width: 5px;
			}
			.cls-3 {
				fill: #ee417d;
			}
			.cls-4 {
				fill: #030303;
			}
			.cls-5 {
				fill: #020202;
			}
		</style>
	</defs>
	
		<g id="nwdj-horizontal-lines">
			<circle
				id="right-small-circle"
				class="cls-1"
				cx="342.91"
				cy="18.56"
				r="4.3"
			/>
			<circle
				id="right-med-circle"
				class="cls-1"
				cx="329.53"
				cy="18.56"
				r="6.54"
			/>
			<path
				id="right-large-circle"
				class="cls-1"
				d="M299.25,18.56a9.94,9.94,0,1,0,9.94-9.94A9.94,9.94,0,0,0,299.25,18.56Z"
			/>
			<line
				id="right-line"
				class="cls-2"
				x1="556.54"
				y1="18.56"
				x2="302.09"
				y2="18.56"
			/>
			<circle
				id="left-small-circle"
				class="cls-1"
				cx="213.63"
				cy="18.56"
				r="4.3"
			/>
			<circle
				id="left-med-circle"
				class="cls-1"
				cx="227.01"
				cy="18.56"
				r="6.54"
			/>
			<circle
				id="left-large-circle"
				class="cls-1"
				cx="247.35"
				cy="18.56"
				r="9.94"
			/>
			<line id="left-line" class="cls-2" y1="18.56" x2="254.45" y2="18.56" />
			<g id="nwdj-logo">
				<path
					id="note"
					class="cls-3"
					d="M285.27,3.18c-.12.51-.24,1-.37,1.51s-.22.82-.32,1.24-.25,1-.38,1.53-.24,1-.37,1.46l-.3,1.2c-.12.48-.25,1-.37,1.46s-.17.7-.26,1.05-.23.9-.35,1.36-.23.94-.35,1.4c-.15.63-.31,1.26-.47,1.88-.11.46-.21.91-.33,1.37a2.68,2.68,0,0,1-.54,1,4.47,4.47,0,0,1-.62.61,5.32,5.32,0,0,1-.83.49,4.8,4.8,0,0,1-1.21.41,4.51,4.51,0,0,1-1.46.09,6.94,6.94,0,0,1-1.09-.27,1.89,1.89,0,0,1-.66-.34,1.56,1.56,0,0,1-.61-1,3,3,0,0,1,.12-1.39,3.08,3.08,0,0,1,.91-1.42A4.31,4.31,0,0,1,277,16a7.5,7.5,0,0,1,1.16-.26,4.91,4.91,0,0,1,.86,0,3.44,3.44,0,0,1,1.63.45,4.44,4.44,0,0,1,.55.42l.13.09.49-2,.44-1.7c.15-.6.31-1.19.46-1.79s.28-1.16.43-1.74.25-1,.37-1.46.25-1,.38-1.57.29-1.08.43-1.62.19-.82.3-1.23c0-.2.1-.39.15-.58ZM275.92,20.1a4.62,4.62,0,0,0,.65-.06c.45-.1.91-.21,1.34-.35a7.59,7.59,0,0,0,2.38-1.27,1.84,1.84,0,0,0,.61-.79.49.49,0,0,0-.31-.65,1.86,1.86,0,0,0-.87-.11,4.71,4.71,0,0,0-1.34.28c-.47.16-.94.34-1.41.53a5.59,5.59,0,0,0-1.26.71,1.94,1.94,0,0,0-.77,1.05.37.37,0,0,0,.11.38A1.28,1.28,0,0,0,275.92,20.1Z"
				/>
				<path
					id="seg6"
					class="cls-4"
					d="M266.44,29l-2.11,2.1A19.35,19.35,0,0,1,259,18.23h2.86c.09,0,.14,0,.14.13a10.88,10.88,0,0,0,.07,1.13c.06.48.12,1,.21,1.45a15.31,15.31,0,0,0,.55,2.09,16.18,16.18,0,0,0,2.57,4.79C265.75,28.24,266.1,28.64,266.44,29Z"
				/>
				<path
					id="seg5"
					class="cls-5"
					d="M264.94,31.75l2.11-2.11a16.23,16.23,0,0,0,10.8,4.48v3A19.31,19.31,0,0,1,264.94,31.75Z"
				/>
				<path
					id="seg4"
					class="cls-5"
					d="M289.49,29.65l2.11,2.11a19.27,19.27,0,0,1-12.9,5.35v-3A16.25,16.25,0,0,0,289.49,29.65Z"
				/>
				<path
					id="seg3"
					class="cls-5"
					d="M294.53,18.24h3a19.37,19.37,0,0,1-5.31,12.9L290.1,29a16.21,16.21,0,0,0,3.23-5A15.89,15.89,0,0,0,294.53,18.24Z"
				/>
				<path
					id="seg2"
					class="cls-5"
					d="M290.06,6.64l2.11-2.11a19.29,19.29,0,0,1,5.35,12.86h-3A16.23,16.23,0,0,0,290.06,6.64Z"
				/>
				<path
					id="seg1"
					class="cls-4"
					d="M285.27,3.18,284.75,3c0-.14.05-.28.08-.41s.08-.39.13-.58.11-.37.16-.56c.1-.41.21-.82.31-1.23l.06-.17a19.44,19.44,0,0,1,6.09,3.94l-.43.4c-.54.54-1.08,1.07-1.61,1.62-.07.07-.11.06-.18,0a15.94,15.94,0,0,0-4-2.73S285.31,3.2,285.27,3.18Z"
				/>
			</g>
		</g>
</svg>
