<svg 
    xmlns="http://www.w3.org/2000/svg" 
    viewBox="0 0 355.68 342.82">
    <defs>
        <style>
        .ring{
            fill:#010101;
        }.note{
            fill:#fd3a7c;
       
        </style>
    </defs>
    <!-- <g id="Layer_2" data-name="Layer 2"> -->
    <g id="nwdj-logo" data-name="NWDJ Logo">
        <path class="ring" d="M171.12,342.82l-4-.5c-6.49-.78-13-1.43-19.47-2.37a151.55,151.55,0,0,1-27.55-7,174.89,174.89,0,0,1-54.39-30.31c-3.45-2.83-6.73-5.89-10.1-8.83a6.84,6.84,0,0,0-.86-.58L74.28,273.7A149.45,149.45,0,0,0,174,315v1.19c0,8.4,0,16.8,0,25.2a4.78,4.78,0,0,1-.45,1.42Z"/>
        <path class="ring" d="M181.68,342.82V315a149.48,149.48,0,0,0,99.62-41.29l19.51,19.5c-3.18,2.79-6.34,5.67-9.61,8.41a172.86,172.86,0,0,1-26.12,18A175.86,175.86,0,0,1,232.45,334a160.49,160.49,0,0,1-25.67,6.18c-4.46.67-8.95,1.2-13.44,1.68-3.05.33-6.11.47-9.17.71a1.77,1.77,0,0,0-.57.25Z"/>
        <path class="ring" d="M355.68,171.7c-.16,1.22-.36,2.44-.49,3.66-.48,4.54-.87,9.08-1.41,13.61a159.94,159.94,0,0,1-6.22,28.35,175.84,175.84,0,0,1-30.58,58c-3.09,3.91-6.51,7.56-9.78,11.34-.26.3-.5.61-.71.86L287,268.05c25.92-28.11,39.65-61.3,40.94-99.72h26.34a8.08,8.08,0,0,1,1.36.24Z"/>
        <path class="ring" d="M0,168.34q13.38,0,26.75,0c.75,0,.87.14.93,1Q28.21,177,29,184.71a132.39,132.39,0,0,0,6.29,27.72,148,148,0,0,0,15.94,33.36A151.16,151.16,0,0,0,68.58,268c-6.46,6.44-12.91,12.86-19.47,19.41-1.43-1.55-3-3.22-4.52-4.94a181.12,181.12,0,0,1-18.52-25.1,178.67,178.67,0,0,1-15.75-33,170.85,170.85,0,0,1-7.13-26.39c-.84-4.51-1.46-9.08-2-13.64-.47-4.18-.66-8.39-1-12.59a1.74,1.74,0,0,0-.24-.47Z"/>
        <path class="ring" d="M355.68,160.66c-8.84,0-17.67,0-26.51,0-1.05,0-1.28-.28-1.36-1.32-.4-5.26-.83-10.52-1.42-15.77a129.66,129.66,0,0,0-5.88-25.71A148.05,148.05,0,0,0,309.57,92.7a149.8,149.8,0,0,0-22.91-31.35l19.5-19.51c2.86,3.27,5.89,6.56,8.73,10A176.05,176.05,0,0,1,339,90a165.69,165.69,0,0,1,10.89,30.58q2,8.17,3.36,16.49C354,142,354.43,147,355,152c.2,1.86.28,3.73.44,5.59a2.61,2.61,0,0,0,.27.68Z"/>
        <path class="note" d="M242.41,29.38c-1.69,6.89-3.36,13.79-5.1,20.68-.94,3.74-2,7.44-3,11.19-1.21,4.78-2.31,9.59-3.48,14.38-1,3.87-2,7.73-2.94,11.59-1.26,5-2.49,10-3.76,15-.68,2.68-1.43,5.34-2.12,8-.75,2.94-1.44,5.89-2.19,8.83-1,3.9-2,7.78-3,11.68-.94,3.75-1.81,7.52-2.74,11.28-1.43,5.78-2.9,11.55-4.33,17.33-1.06,4.25-2,8.52-3.16,12.74a25.65,25.65,0,0,1-6,10.8,42,42,0,0,1-17.44,10.93,49.17,49.17,0,0,1-19.41,2.54,35.94,35.94,0,0,1-6.67-1.38,27.72,27.72,0,0,1-8.41-3.41,14.75,14.75,0,0,1-6.83-9.89c-.82-4.26-.13-8.43,1-12.54a27.74,27.74,0,0,1,8.53-13.31,42.23,42.23,0,0,1,15.93-8.69,47.62,47.62,0,0,1,18.21-2.06A30.59,30.59,0,0,1,199.19,149a61.78,61.78,0,0,1,5.29,4c.37.28.76.53,1.18.81,1-3.77,1.91-7.27,2.78-10.8,1-3.86,1.83-7.76,2.8-11.62,1-4.1,2.12-8.17,3.17-12.26,1.39-5.42,2.8-10.85,4.16-16.28s2.64-10.73,4-16.08c1.13-4.47,2.33-8.92,3.44-13.4,1.2-4.82,2.28-9.68,3.5-14.49,1.26-5,2.64-10,3.92-15,1-3.78,1.82-7.59,2.76-11.38.44-1.8,1-3.57,1.46-5.35ZM158.86,185.51c1.66-.29,3.14-.57,4.63-.79A63.4,63.4,0,0,0,176.88,181a77.32,77.32,0,0,0,15.3-7.79c3.4-2.3,6.8-4.69,8.88-8.37a8.45,8.45,0,0,0,1.26-4.21c-.11-2.54-2.14-3.62-4.36-4.27-4-1.18-8.07-.71-12,.11a91.11,91.11,0,0,0-20.09,6.66,59.74,59.74,0,0,0-12.7,7.51,16.43,16.43,0,0,0-5.85,8c-.73,2.36-.47,3.71,1.27,4.85a9.86,9.86,0,0,0,3.66,1.63C154.46,185.41,156.75,185.38,158.86,185.51Z"/>
        <path class="ring" d="M242.41,29.38l-4.78-2.17c.28-1.38.51-2.78.85-4.14,1.26-5.14,2.56-10.27,3.86-15.39.65-2.56,1.33-5.1,2-7.68a178.62,178.62,0,0,1,55.87,36.07L280.81,55.42c-2.49-2.16-5.15-4.57-7.91-6.85a148.48,148.48,0,0,0-29.48-18.9A4.89,4.89,0,0,0,242.41,29.38Z"/>
    </g>
</svg>