<svg xmlns="http://www.w3.org/2000/svg" viewBox="0 0 102.06 49.5"><defs><style>.cls-1{fill:#f7bf1c;}.cls-2{fill:#f7be1c;}.cls-3{fill:#e7523f;}.cls-4{fill:#6caa53;}.cls-5{fill:#6777b9;}.cls-6{fill:#f7c320;}.cls-7{fill:#6877b9;}</style></defs><g id="Layer_2" data-name="Layer 2"><g id="logo"><path id="star5" class="cls-1" d="M83.89,49.26c.23-1.58.44-3,.65-4.5a1.11,1.11,0,0,0-.33-1c-.91-.9-1.73-1.88-2.61-2.81-.28-.3-.23-.52.12-.64a11.88,11.88,0,0,1,1.65-.46c.69-.14,1.39-.24,2.09-.33a1.08,1.08,0,0,0,1-.64c.61-1.17,1.27-2.31,1.91-3.46.1-.18.23-.35.42-.65.15.3.25.5.36.69.63,1.13,1.3,2.24,1.91,3.38a1.36,1.36,0,0,0,1.09.7c1.38.24,2.76.5,4.34.79-.74.81-1.36,1.5-2,2.18-.42.45-.87.87-1.28,1.33a.86.86,0,0,0-.26.54c.06.72.17,1.44.26,2.16s.23,1.59.33,2.39c0,.1-.08.22-.15.4l-3-1.4a6.35,6.35,0,0,0-1-.51,1.81,1.81,0,0,0-1.08,0c-1.25.56-2.47,1.2-3.7,1.79A2.26,2.26,0,0,1,83.89,49.26Z"/><path id="star4" class="cls-1" d="M74.64,49.47c-.78-.33-1.37-.56-1.94-.82-.86-.39-1.71-.82-2.57-1.21a.67.67,0,0,0-.48,0c-1.22.55-2.43,1.12-3.64,1.68-.25.11-.52.2-.85.33.06-.72.09-1.36.16-2,.12-1,.28-1.89.38-2.84a.84.84,0,0,0-.25-.57c-.94-1-1.89-2-2.84-3a4.21,4.21,0,0,1-.34-.47c.26-.09.48-.2.7-.25,1.36-.27,2.71-.5,4.06-.79a.91.91,0,0,0,.51-.46c.72-1.3,1.42-2.61,2.12-3.92,0,0,.11-.06.26-.14.38.67.76,1.34,1.13,2s.68,1.22,1,1.85,1.15.78,1.85.92l3.69.73-1.68,1.8c-.5.54-1,1.1-1.52,1.62a1.23,1.23,0,0,0-.29,1.24C74.3,46.5,74.45,47.87,74.64,49.47Z"/><path id="star3" class="cls-1" d="M50.76,34.84,52,37a16.46,16.46,0,0,0,1.12,2,2.15,2.15,0,0,0,1.17.69c1.15.27,2.33.42,3.49.63.18,0,.35.09.64.17a6,6,0,0,1-.47.7,32.54,32.54,0,0,0-2.73,2.91c-.31.41-.14,1.22-.08,1.84.1,1.11.28,2.21.45,3.49-.44-.14-.77-.21-1.06-.34-1.11-.51-2.2-1.06-3.32-1.54a1.22,1.22,0,0,0-.9,0c-1.39.61-2.75,1.27-4.21,2a7.9,7.9,0,0,1,0-1c.14-1.2.34-2.38.43-3.58a1.74,1.74,0,0,0-.38-1.16c-.83-1-1.73-1.86-2.6-2.79-.11-.12-.2-.27-.38-.52L45.3,40c.92-.18,1.83-.33,2.74-.54.17,0,.33-.28.44-.47C49.21,37.68,49.92,36.36,50.76,34.84Z"/><path id="star2" class="cls-1" d="M32.1,35c.83,1.47,1.53,2.9,2.41,4.2.26.37,1,.45,1.56.57,1.18.27,2.37.48,3.69.74l-1.63,1.77c-.6.65-1.2,1.29-1.76,2a1,1,0,0,0-.12.68c.18,1.46.39,2.91.6,4.49a7.53,7.53,0,0,1-.85-.23c-1.15-.54-2.31-1.07-3.44-1.65a1.11,1.11,0,0,0-1.08,0l-3.4,1.64a4.34,4.34,0,0,1-.73.22c.06-.73.09-1.38.17-2,.11-.89.29-1.79.4-2.69a1,1,0,0,0-.26-.64c-1-1.08-2-2.15-3-3.22l-.25-.28a4,4,0,0,1,.65-.26c1.36-.27,2.72-.51,4.08-.79a1,1,0,0,0,.53-.44c.68-1.16,1.32-2.33,2-3.5A6,6,0,0,1,32.1,35Z"/><path id="star1" class="cls-2" d="M12.93,34.94c.66,1.18,1.33,2.22,1.84,3.33a2.22,2.22,0,0,0,1.85,1.44c1,.14,2,.35,3.06.55.26.05.51.14.88.24-.5.55-.91,1-1.34,1.47-.59.63-1.21,1.23-1.76,1.9a1.4,1.4,0,0,0-.32.93c.12,1.34.31,2.68.47,4a6.2,6.2,0,0,1,0,.62c-.86-.37-1.63-.69-2.39-1s-1.39-.69-2.1-1a.65.65,0,0,0-.49,0c-1.24.55-2.47,1.13-3.7,1.69a7.73,7.73,0,0,1-.82.25c.15-1.19.28-2.27.41-3.35a4,4,0,0,0,.14-1.47,3.73,3.73,0,0,0-.91-1.32c-.74-.82-1.53-1.59-2.29-2.39a1.36,1.36,0,0,1-.16-.34,3.91,3.91,0,0,1,.64-.24c1.3-.26,2.6-.53,3.91-.73a1,1,0,0,0,.78-.6c.65-1.18,1.3-2.35,2-3.52C12.66,35.3,12.76,35.19,12.93,34.94Z"/><path id="e" class="cls-3" d="M90.11,20.41a5,5,0,0,0,8,.42c.27-.34.46-.45.85-.14.62.48,1.28.91,1.94,1.34.36.23.33.43.08.75a8.46,8.46,0,0,1-11.08,2,8.12,8.12,0,0,1-4-8.11,8,8,0,0,1,5.08-6.88,8.38,8.38,0,0,1,11,4.42c.22.54,0,.8-.45,1q-5.51,2.44-11,4.93Zm-.82-2.81,8.24-3.69a4.88,4.88,0,0,0-8.24,3.69Z"/><path id="l" class="cls-4" d="M84.5,25.24H81.1V1.2h3.4Z"/><path id="g" class="cls-5" d="M75.9,10.67,76,10h3.42c0,.19,0,.37,0,.55,0,4.86,0,9.72,0,14.58a8.46,8.46,0,0,1-15.58,4.52c-.19-.3-.33-.62-.52-1l3.07-1.33c2.2,2.69,4.62,3.43,6.88,2.21,1.93-1,3.06-3.42,2.59-5a8.56,8.56,0,0,1-7.75,1,8.39,8.39,0,0,1-4.45-3.66A8.49,8.49,0,0,1,75.9,10.67Zm0,6.94a4.9,4.9,0,0,0-5-5,5,5,0,0,0,0,10.06A4.93,4.93,0,0,0,75.93,17.61Z"/><path id="o2" class="cls-6" d="M53.09,26a8.44,8.44,0,1,1,.26-16.88,8.56,8.56,0,0,1,8.24,8.24A8.42,8.42,0,0,1,53.09,26Zm-5-8.44a5,5,0,1,0,5-5A5,5,0,0,0,48.09,17.6Z"/><path id="o1" class="cls-3" d="M35.16,26a8.44,8.44,0,1,1,8.53-8A8.46,8.46,0,0,1,35.16,26Zm5.1-8.44a5,5,0,1,0-5,5A5,5,0,0,0,40.26,17.6Z"/><path id="G-2" data-name="G" class="cls-7" d="M21.8,3.45,19.52,6A9.5,9.5,0,0,0,12,3.46,9.19,9.19,0,0,0,6.57,5.87,9.52,9.52,0,0,0,4.32,17a9.7,9.7,0,0,0,9.93,5.41,9.49,9.49,0,0,0,7.88-7H13c0-1.14,0-2.22,0-3.3,0-.44.36-.31.61-.31h9c.9,0,1.8,0,2.7,0,.38,0,.55.09.57.51a12.85,12.85,0,0,1-9,12.91A12.55,12.55,0,0,1,3.8,22.1,12.91,12.91,0,0,1,3,4.64,12.68,12.68,0,0,1,13.52,0,12.61,12.61,0,0,1,21.8,3.45Z"/></g></g></svg>