<svg xmlns="http://www.w3.org/2000/svg" viewBox="0 0 38 38">
    <g id="nwdj-icon" data-name="NWDJ Icon">
        <path id="circle" d="M25.83,1.28c-.08.29-.16.58-.25.86s-.07.28-.11.42L25.32,3c-.07.23-.14.46-.2.69l-.23.8c-.05.17-.11.35-.17.52l-.21.72c0,.15-.1.31-.14.47l-.21.71-.3,1c-.1.32-.2.64-.29,1,0,.13-.07.27-.11.41s-.11.33-.16.49-.13.46-.19.69L23,11c-.07.23-.13.47-.2.71s-.15.53-.23.79-.11.33-.16.5-.14.51-.21.76a.76.76,0,0,0-.06.16l-.24.84c-.08.29-.18.58-.26.88l-.15.52-.3,1s0,0,0,0l-.05,0a2,2,0,0,0-1-.4,2,2,0,0,0-.42-.05l-.27,0-.11,0a.17.17,0,0,1-.1,0,.47.47,0,0,0-.33,0,.41.41,0,0,1-.11,0,3.2,3.2,0,0,0-.82.14,3.16,3.16,0,0,0-.68.29,3.3,3.3,0,0,0-.49.34,2.79,2.79,0,0,0-.37.4,1.74,1.74,0,0,0-.27.5c0,.11-.07.21-.1.31a1.28,1.28,0,0,0-.06.43v.35a1.07,1.07,0,0,0,.33.77,1.35,1.35,0,0,0,.55.36,4,4,0,0,0,.67.2,1.09,1.09,0,0,0,.26,0h1.08a1.28,1.28,0,0,0,.51-.09c.14-.05.29-.07.43-.11a3.28,3.28,0,0,0,.86-.47,3,3,0,0,0,.37-.34,1.92,1.92,0,0,0,.47-.89c0-.16.1-.32.14-.48s.13-.41.19-.61c.11-.37.22-.73.32-1.1,0-.18.11-.35.16-.54s.14-.48.21-.72.19-.63.28-.94.12-.43.2-.65.09-.34.14-.51.15-.51.23-.77.08-.3.13-.45.11-.36.17-.54l.21-.74.15-.5.21-.73c0-.15.1-.31.15-.46l.2-.71c.11-.39.22-.77.34-1.15l.15-.52.21-.72c.05-.17.11-.33.16-.51s.15-.45.19-.69a.94.94,0,0,1,.06-.15c.09-.32.18-.65.28-1l.21-.69.16-.58c0-.14.09-.27.13-.41s.09-.31.13-.47a18.8,18.8,0,1,1-.8-.34Z"/>
        <path id="middle" d="M20.76,18.05a.53.53,0,0,1-.1.34,2.28,2.28,0,0,1-.29.33,1.78,1.78,0,0,1-.31.23c-.17.1-.34.21-.52.3a4.91,4.91,0,0,1-.92.37l-.56.16a2.34,2.34,0,0,1-.59.09.69.69,0,0,1-.6-.27.26.26,0,0,1,0-.24A.84.84,0,0,1,17,19a2.66,2.66,0,0,1,.77-.61A6.45,6.45,0,0,1,19,17.93a4.44,4.44,0,0,1,.89-.21l.24,0h.09l.39.14A.33.33,0,0,1,20.76,18.05Z"/>
    </g>
</svg>