<svg xmlns="http://www.w3.org/2000/svg" 
viewBox="0 0 182.56 18.29">
<defs>
<style>
.cls-1{fill:#010101;}
.cls-2{fill:#ee417d;}
.cls-3{fill:#030303;}
.cls-4{fill:#020202;}
.cls-5{fill:#fff;stroke:#231f20;stroke-miterlimit:10;}
</style>
</defs>
<g id="Layer_2" data-name="Layer 2">
<g id="nwdj-horizontal-lines">
<circle id="right-small-circle" 
class="cls-1" 
cx="123.13" 
cy="9.15" 
r="2.12"/>
<circle 
id="right-med-circle" 
class="cls-1" cx="116.54" cy="9.15" 
r="3.22"/>
<path id="right-large-circle" 
class="cls-1" 
d="M101.62,9.15a4.9,4.9,0,1,0,4.89-4.9A4.89,4.89,0,0,0,101.62,9.15Z"/>
<circle id="left-small-circle" class="cls-1" cx="59.43" cy="9.15" r="2.12"/>
<circle id="left-med-circle" class="cls-1" cx="66.02" cy="9.15" r="3.22"/>
<circle id="left-large-circle" class="cls-1" cx="76.04" cy="9.15" r="4.9"/>
<g id="nwdj-logo">
    <path id="note" class="cls-2" d="M94.73,1.57l-.18.74-.16.61c-.06.25-.12.5-.19.75L94,4.4,93.87,5l-.18.73c0,.17-.08.34-.13.51s-.11.45-.17.67-.11.47-.17.7-.16.61-.23.92-.11.45-.17.67a1.18,1.18,0,0,1-.26.51,2.18,2.18,0,0,1-.31.3,2.5,2.5,0,0,1-.41.25,3,3,0,0,1-.6.2,2.49,2.49,0,0,1-.72,0,3.41,3.41,0,0,1-.53-.13.87.87,0,0,1-.33-.17.77.77,0,0,1-.3-.48A1.56,1.56,0,0,1,89.42,9a1.49,1.49,0,0,1,.45-.7,2.27,2.27,0,0,1,.77-.44,3.61,3.61,0,0,1,.57-.12,3,3,0,0,1,.42,0,1.75,1.75,0,0,1,.81.22c.09.06.18.14.27.21l.06,0c.08-.34.16-.67.25-1l.21-.83c.08-.3.15-.59.23-.88l.21-.86.18-.72c.07-.26.12-.52.19-.78l.21-.8.15-.6c0-.1,0-.19.07-.29ZM90.12,9.91a3.16,3.16,0,0,0,.32,0c.22-.05.45-.11.66-.18a3.66,3.66,0,0,0,1.17-.62,1,1,0,0,0,.31-.39.25.25,0,0,0-.16-.32A1,1,0,0,0,92,8.31a2.6,2.6,0,0,0-.66.14l-.69.26a2.91,2.91,0,0,0-.62.35.9.9,0,0,0-.38.52.18.18,0,0,0,0,.19A.69.69,0,0,0,90.12,9.91Z"/><path id="seg6" class="cls-3" d="M85.45,14.31l-1,1A9.54,9.54,0,0,1,81.79,9H83.2s.07,0,.07.07a3.39,3.39,0,0,0,0,.55c0,.24.06.48.1.72a7.43,7.43,0,0,0,.27,1A7.81,7.81,0,0,0,85,13.71C85.11,13.92,85.28,14.11,85.45,14.31Z"/><path id="seg5" class="cls-4" d="M84.71,15.65l1-1a8.05,8.05,0,0,0,5.32,2.21v1.47A9.57,9.57,0,0,1,84.71,15.65Z"/><path id="seg4" class="cls-4" d="M96.81,14.61l1,1a9.55,9.55,0,0,1-6.36,2.64V16.82A8.05,8.05,0,0,0,96.81,14.61Z"/><path id="seg3" class="cls-4" d="M99.29,9h1.48a9.51,9.51,0,0,1-2.62,6.35l-1-1A7.94,7.94,0,0,0,99.29,9Z"/><path id="seg2" class="cls-4" d="M97.09,3.27l1-1a9.48,9.48,0,0,1,2.64,6.34H99.29A7.94,7.94,0,0,0,97.09,3.27Z"/><path id="seg1" class="cls-3" d="M94.73,1.57l-.26-.12a1.42,1.42,0,0,0,0-.2A2.86,2.86,0,0,1,94.58,1c0-.1,0-.19.07-.28s.11-.4.16-.61l0-.08a9.78,9.78,0,0,1,3,1.94c-.07.07-.15.13-.21.2l-.8.8s0,0-.09,0a8,8,0,0,0-1.95-1.34Z"/></g><line id="right-line" class="cls-5" x1="106.51" y1="8.94" x2="182.56" y2="8.94"/><line id="left-line" class="cls-5" y1="9.11" x2="76.04" y2="9.11"/>
</g></g></svg>