<svg xmlns="http://www.w3.org/2000/svg" viewBox="0 0 37.58 36.22">
	<defs>
		<style>
			.cls-1 {
				fill: #030303;
			}
			.cls-2 {
				fill: #020202;
			}
			.cls-3 {
				fill: #ee417d;
			}
		</style>
	</defs>
	<g id="Layer_2" data-name="Layer 2">
		<g id="nwdj-logo">
			<path
				id="seg6"
				data-name="6"
				class="cls-1"
				d="M5.19,30.39A18.87,18.87,0,0,1,0,17.8H2.8c.08,0,.12,0,.13.12q0,.68.09,1.35a16,16,0,0,0,.79,3.42,15.81,15.81,0,0,0,2.86,5c.19.23.39.45.58.66Z"
			/>
			<path
				id="seg5"
				data-name="5"
				class="cls-2"
				d="M18.39,33.3v2.92A18.82,18.82,0,0,1,5.8,31l2.06-2.06A15.81,15.81,0,0,0,18.39,33.3Z"
			/>
			<path
				id="seg4"
				data-name="4"
				class="cls-2"
				d="M19.2,36.22V33.29a15.71,15.71,0,0,0,5.66-1.19,15.93,15.93,0,0,0,4.87-3.17L31.79,31A18.89,18.89,0,0,1,19.2,36.22Z"
			/>
			<path
				id="seg3"
				data-name="3"
				class="cls-2"
				d="M34.66,17.8h2.92A18.84,18.84,0,0,1,32.4,30.38l-2-2.06A15.84,15.84,0,0,0,34.66,17.8Z"
			/>
			<path
				id="seg2"
				data-name="2"
				class="cls-2"
				d="M30.29,6.47l2.06-2.06A18.85,18.85,0,0,1,37.58,17H34.66A15.82,15.82,0,0,0,30.29,6.47Z"
			/>
			<path
				id="note"
				class="cls-3"
				d="M25.62,3.11c-.12.49-.23,1-.36,1.47s-.21.8-.31,1.2-.25,1-.37,1.5l-.36,1.43-.3,1.16-.36,1.43c-.09.34-.16.68-.25,1s-.23.89-.35,1.33L22.63,15c-.15.61-.31,1.22-.46,1.83l-.33,1.34a2.52,2.52,0,0,1-.52,1,4.32,4.32,0,0,1-.61.6,5.22,5.22,0,0,1-2,.88,4.51,4.51,0,0,1-1.42.08,6.78,6.78,0,0,1-1.06-.25,2,2,0,0,1-.65-.34,1.57,1.57,0,0,1-.59-.95,2.81,2.81,0,0,1,.12-1.35A3,3,0,0,1,16,16.48a4.13,4.13,0,0,1,1.52-.87,7.11,7.11,0,0,1,1.13-.25,4.69,4.69,0,0,1,.84,0,3.42,3.42,0,0,1,1.59.44,5.12,5.12,0,0,1,.54.41l.12.09c.17-.68.32-1.33.49-2s.28-1.11.42-1.66l.45-1.75.42-1.7.37-1.42.36-1.53.42-1.59c.1-.4.19-.8.29-1.2l.15-.56Zm-10.1,16a.3.3,0,0,0,0,.11.85.85,0,0,0,.63.37,2.24,2.24,0,0,0,.93,0,7.81,7.81,0,0,0,1.42-.37A7.45,7.45,0,0,0,20.74,18a1.81,1.81,0,0,0,.62-.8.49.49,0,0,0-.3-.62,1.7,1.7,0,0,0-.86-.1,6.85,6.85,0,0,0-1.26.25,8.51,8.51,0,0,0-2.2.93,3,3,0,0,0-1,.82A1.35,1.35,0,0,0,15.52,19.11Z"
			/>
			<path
				id="seg1"
				data-name="1"
				class="cls-1"
				d="M25.62,3.11l-.51-.23c0-.14.05-.27.08-.4s.08-.38.13-.57.1-.36.15-.54c.1-.4.2-.8.31-1.2a1.09,1.09,0,0,1,0-.17,19,19,0,0,1,5.94,3.85l-.41.38L29.78,5.81c-.07.07-.11.06-.17,0a15.59,15.59,0,0,0-3.87-2.66Z"
			/>
		</g>
	</g>
</svg>
